<?xml version="1.0" encoding="UTF-8" standalone="no"?><svg xmlns="http://www.w3.org/2000/svg" xmlns:xlink="http://www.w3.org/1999/xlink" contentScriptType="application/ecmascript" contentStyleType="text/css" height="284px" preserveAspectRatio="none" style="width:1492px;height:284px;" version="1.1" viewBox="0 0 1492 284" width="1492px" zoomAndPan="magnify"><defs><filter height="300%" id="fqbdgsywnsgt2" width="300%" x="-1" y="-1"><feGaussianBlur result="blurOut" stdDeviation="2.0"/><feColorMatrix in="blurOut" result="blurOut2" type="matrix" values="0 0 0 0 0 0 0 0 0 0 0 0 0 0 0 0 0 0 .4 0"/><feOffset dx="4.0" dy="4.0" in="blurOut2" result="blurOut3"/><feBlend in="SourceGraphic" in2="blurOut3" mode="normal"/></filter></defs><g><!--MD5=[d0804cd86a45538270769597e699651b]
cluster application.repository--><polygon fill="#FFFFFF" filter="url(#fqbdgsywnsgt2)" points="16,6,203,6,210,28.2969,1475,28.2969,1475,277,16,277,16,6" style="stroke:#000000;stroke-width:1.5;"/><line style="stroke:#000000;stroke-width:1.5;" x1="16" x2="210" y1="28.2969" y2="28.2969"/><text fill="#000000" font-family="sans-serif" font-size="14" font-weight="bold" lengthAdjust="spacing" textLength="181" x="20" y="20.9951">application.repository</text><!--MD5=[1aa96d969a9946644aea6ab6e3ac4f98]
class CarClassificationRepository--><rect codeLine="3" fill="#FEFECE" filter="url(#fqbdgsywnsgt2)" height="112.0234" id="CarClassificationRepository" style="stroke:#A80036;stroke-width:1.5;" width="358" x="1101" y="149"/><ellipse cx="1194.25" cy="165" fill="#ADD1B2" rx="11" ry="11" style="stroke:#A80036;stroke-width:1.0;"/><path d="M1196.5938,160.6719 C1195.6563,160.2344 1195.0625,160.0938 1194.1875,160.0938 C1191.5625,160.0938 1189.5625,162.1719 1189.5625,164.8906 L1189.5625,166.0156 C1189.5625,168.5938 1191.6719,170.4844 1194.5625,170.4844 C1195.7813,170.4844 1196.9375,170.1875 1197.6875,169.6406 C1198.2656,169.2344 1198.5938,168.7813 1198.5938,168.3906 C1198.5938,167.9375 1198.2031,167.5469 1197.7344,167.5469 C1197.5156,167.5469 1197.3125,167.625 1197.125,167.8125 C1196.6719,168.2969 1196.6719,168.2969 1196.4844,168.3906 C1196.0625,168.6563 1195.375,168.7813 1194.6094,168.7813 C1192.5625,168.7813 1191.2656,167.6875 1191.2656,165.9844 L1191.2656,164.8906 C1191.2656,163.1094 1192.5156,161.7969 1194.25,161.7969 C1194.8281,161.7969 1195.4375,161.9531 1195.9063,162.2031 C1196.3906,162.4844 1196.5625,162.7031 1196.6563,163.1094 C1196.7188,163.5156 1196.75,163.6406 1196.8906,163.7656 C1197.0313,163.9063 1197.2656,164.0156 1197.4844,164.0156 C1197.75,164.0156 1198.0156,163.875 1198.1875,163.6563 C1198.2969,163.5 1198.3281,163.3125 1198.3281,162.8906 L1198.3281,161.4688 C1198.3281,161.0313 1198.3125,160.9063 1198.2188,160.75 C1198.0625,160.4844 1197.7813,160.3438 1197.4844,160.3438 C1197.1875,160.3438 1196.9844,160.4375 1196.7656,160.75 L1196.5938,160.6719 Z " fill="#000000"/><text fill="#000000" font-family="sans-serif" font-size="12" lengthAdjust="spacing" textLength="163" x="1214.75" y="169.1543">CarClassificationRepository</text><line style="stroke:#A80036;stroke-width:1.5;" x1="1102" x2="1458" y1="181" y2="181"/><rect fill="none" height="6" style="stroke:#C82930;stroke-width:1.0;" width="6" x="1109" y="189"/><text fill="#000000" font-family="sans-serif" font-size="11" lengthAdjust="spacing" textLength="332" x="1121" y="195.2104">std::vector&lt;std::shared_ptr&lt;CarClassification&gt;&gt; repository</text><rect fill="none" height="6" style="stroke:#C82930;stroke-width:1.0;" width="6" x="1109" y="201.8047"/><text fill="#000000" font-family="sans-serif" font-size="11" lengthAdjust="spacing" textLength="286" x="1121" y="208.0151">std::shared_ptr&lt;CarClassification&gt; classificationNC</text><line style="stroke:#A80036;stroke-width:1.5;" x1="1102" x2="1458" y1="214.6094" y2="214.6094"/><ellipse cx="1112" cy="225.6094" fill="#84BE84" rx="3" ry="3" style="stroke:#038048;stroke-width:1.0;"/><text fill="#000000" font-family="sans-serif" font-size="11" lengthAdjust="spacing" textLength="161" x="1121" y="228.8198">CarClassificationRepository()</text><ellipse cx="1112" cy="238.4141" fill="#84BE84" rx="3" ry="3" style="stroke:#038048;stroke-width:1.0;"/><text fill="#000000" font-family="sans-serif" font-size="11" lengthAdjust="spacing" textLength="170" x="1121" y="241.6245">~CarClassificationRepository()</text><ellipse cx="1112" cy="251.2188" fill="#84BE84" rx="3" ry="3" style="stroke:#038048;stroke-width:1.0;"/><text fill="#000000" font-family="sans-serif" font-size="11" lengthAdjust="spacing" textLength="319" x="1121" y="254.4292">virtual std::shared_ptr&lt;CarClassification&gt; getByID(int id)</text><!--MD5=[4620f1108ed6536e801ceb31ce98a093]
class AbstractCarClassificationRepository--><rect fill="#FEFECE" filter="url(#fqbdgsywnsgt2)" height="48" id="AbstractCarClassificationRepository" style="stroke:#A80036;stroke-width:1.5;" width="245" x="1157.5" y="41"/><ellipse cx="1172.5" cy="57" fill="#ADD1B2" rx="11" ry="11" style="stroke:#A80036;stroke-width:1.0;"/><path d="M1174.8438,52.6719 C1173.9063,52.2344 1173.3125,52.0938 1172.4375,52.0938 C1169.8125,52.0938 1167.8125,54.1719 1167.8125,56.8906 L1167.8125,58.0156 C1167.8125,60.5938 1169.9219,62.4844 1172.8125,62.4844 C1174.0313,62.4844 1175.1875,62.1875 1175.9375,61.6406 C1176.5156,61.2344 1176.8438,60.7813 1176.8438,60.3906 C1176.8438,59.9375 1176.4531,59.5469 1175.9844,59.5469 C1175.7656,59.5469 1175.5625,59.625 1175.375,59.8125 C1174.9219,60.2969 1174.9219,60.2969 1174.7344,60.3906 C1174.3125,60.6563 1173.625,60.7813 1172.8594,60.7813 C1170.8125,60.7813 1169.5156,59.6875 1169.5156,57.9844 L1169.5156,56.8906 C1169.5156,55.1094 1170.7656,53.7969 1172.5,53.7969 C1173.0781,53.7969 1173.6875,53.9531 1174.1563,54.2031 C1174.6406,54.4844 1174.8125,54.7031 1174.9063,55.1094 C1174.9688,55.5156 1175,55.6406 1175.1406,55.7656 C1175.2813,55.9063 1175.5156,56.0156 1175.7344,56.0156 C1176,56.0156 1176.2656,55.875 1176.4375,55.6563 C1176.5469,55.5 1176.5781,55.3125 1176.5781,54.8906 L1176.5781,53.4688 C1176.5781,53.0313 1176.5625,52.9063 1176.4688,52.75 C1176.3125,52.4844 1176.0313,52.3438 1175.7344,52.3438 C1175.4375,52.3438 1175.2344,52.4375 1175.0156,52.75 L1174.8438,52.6719 Z " fill="#000000"/><text fill="#000000" font-family="sans-serif" font-size="12" lengthAdjust="spacing" textLength="213" x="1186.5" y="61.1543">AbstractCarClassificationRepository</text><line style="stroke:#A80036;stroke-width:1.5;" x1="1158.5" x2="1401.5" y1="73" y2="73"/><line style="stroke:#A80036;stroke-width:1.5;" x1="1158.5" x2="1401.5" y1="81" y2="81"/><!--MD5=[f1f7511de20c5d4c2983d5f8d0b1d578]
class CarRepository--><rect codeLine="14" fill="#FEFECE" filter="url(#fqbdgsywnsgt2)" height="99.2188" id="CarRepository" style="stroke:#A80036;stroke-width:1.5;" width="284" x="782" y="155.5"/><ellipse cx="877.25" cy="171.5" fill="#ADD1B2" rx="11" ry="11" style="stroke:#A80036;stroke-width:1.0;"/><path d="M879.5938,167.1719 C878.6563,166.7344 878.0625,166.5938 877.1875,166.5938 C874.5625,166.5938 872.5625,168.6719 872.5625,171.3906 L872.5625,172.5156 C872.5625,175.0938 874.6719,176.9844 877.5625,176.9844 C878.7813,176.9844 879.9375,176.6875 880.6875,176.1406 C881.2656,175.7344 881.5938,175.2813 881.5938,174.8906 C881.5938,174.4375 881.2031,174.0469 880.7344,174.0469 C880.5156,174.0469 880.3125,174.125 880.125,174.3125 C879.6719,174.7969 879.6719,174.7969 879.4844,174.8906 C879.0625,175.1563 878.375,175.2813 877.6094,175.2813 C875.5625,175.2813 874.2656,174.1875 874.2656,172.4844 L874.2656,171.3906 C874.2656,169.6094 875.5156,168.2969 877.25,168.2969 C877.8281,168.2969 878.4375,168.4531 878.9063,168.7031 C879.3906,168.9844 879.5625,169.2031 879.6563,169.6094 C879.7188,170.0156 879.75,170.1406 879.8906,170.2656 C880.0313,170.4063 880.2656,170.5156 880.4844,170.5156 C880.75,170.5156 881.0156,170.375 881.1875,170.1563 C881.2969,170 881.3281,169.8125 881.3281,169.3906 L881.3281,167.9688 C881.3281,167.5313 881.3125,167.4063 881.2188,167.25 C881.0625,166.9844 880.7813,166.8438 880.4844,166.8438 C880.1875,166.8438 879.9844,166.9375 879.7656,167.25 L879.5938,167.1719 Z " fill="#000000"/><text fill="#000000" font-family="sans-serif" font-size="12" lengthAdjust="spacing" textLength="85" x="897.75" y="175.6543">CarRepository</text><line style="stroke:#A80036;stroke-width:1.5;" x1="783" x2="1065" y1="187.5" y2="187.5"/><rect fill="none" height="6" style="stroke:#C82930;stroke-width:1.0;" width="6" x="790" y="195.5"/><text fill="#000000" font-family="sans-serif" font-size="11" lengthAdjust="spacing" textLength="258" x="802" y="201.7104">std::vector&lt;std::shared_ptr&lt;Car&gt;&gt; repository</text><line style="stroke:#A80036;stroke-width:1.5;" x1="783" x2="1065" y1="208.3047" y2="208.3047"/><ellipse cx="793" cy="219.3047" fill="#84BE84" rx="3" ry="3" style="stroke:#038048;stroke-width:1.0;"/><text fill="#000000" font-family="sans-serif" font-size="11" lengthAdjust="spacing" textLength="87" x="802" y="222.5151">CarRepository()</text><ellipse cx="793" cy="232.1094" fill="#84BE84" rx="3" ry="3" style="stroke:#038048;stroke-width:1.0;"/><text fill="#000000" font-family="sans-serif" font-size="11" lengthAdjust="spacing" textLength="96" x="802" y="235.3198">~CarRepository()</text><ellipse cx="793" cy="244.9141" fill="#84BE84" rx="3" ry="3" style="stroke:#038048;stroke-width:1.0;"/><text fill="#000000" font-family="sans-serif" font-size="11" lengthAdjust="spacing" textLength="245" x="802" y="248.1245">virtual std::shared_ptr&lt;Car&gt; getByID(int id)</text><!--MD5=[e28998c6c06350ddb6a4d2d37a062679]
class AbstractCarRepository--><rect fill="#FEFECE" filter="url(#fqbdgsywnsgt2)" height="48" id="AbstractCarRepository" style="stroke:#A80036;stroke-width:1.5;" width="167" x="840.5" y="41"/><ellipse cx="855.5" cy="57" fill="#ADD1B2" rx="11" ry="11" style="stroke:#A80036;stroke-width:1.0;"/><path d="M857.8438,52.6719 C856.9063,52.2344 856.3125,52.0938 855.4375,52.0938 C852.8125,52.0938 850.8125,54.1719 850.8125,56.8906 L850.8125,58.0156 C850.8125,60.5938 852.9219,62.4844 855.8125,62.4844 C857.0313,62.4844 858.1875,62.1875 858.9375,61.6406 C859.5156,61.2344 859.8438,60.7813 859.8438,60.3906 C859.8438,59.9375 859.4531,59.5469 858.9844,59.5469 C858.7656,59.5469 858.5625,59.625 858.375,59.8125 C857.9219,60.2969 857.9219,60.2969 857.7344,60.3906 C857.3125,60.6563 856.625,60.7813 855.8594,60.7813 C853.8125,60.7813 852.5156,59.6875 852.5156,57.9844 L852.5156,56.8906 C852.5156,55.1094 853.7656,53.7969 855.5,53.7969 C856.0781,53.7969 856.6875,53.9531 857.1563,54.2031 C857.6406,54.4844 857.8125,54.7031 857.9063,55.1094 C857.9688,55.5156 858,55.6406 858.1406,55.7656 C858.2813,55.9063 858.5156,56.0156 858.7344,56.0156 C859,56.0156 859.2656,55.875 859.4375,55.6563 C859.5469,55.5 859.5781,55.3125 859.5781,54.8906 L859.5781,53.4688 C859.5781,53.0313 859.5625,52.9063 859.4688,52.75 C859.3125,52.4844 859.0313,52.3438 858.7344,52.3438 C858.4375,52.3438 858.2344,52.4375 858.0156,52.75 L857.8438,52.6719 Z " fill="#000000"/><text fill="#000000" font-family="sans-serif" font-size="12" lengthAdjust="spacing" textLength="135" x="869.5" y="61.1543">AbstractCarRepository</text><line style="stroke:#A80036;stroke-width:1.5;" x1="841.5" x2="1006.5" y1="73" y2="73"/><line style="stroke:#A80036;stroke-width:1.5;" x1="841.5" x2="1006.5" y1="81" y2="81"/><!--MD5=[50517cd8d76fa284d183a993d38d0bc5]
class ClientRepository--><rect codeLine="24" fill="#FEFECE" filter="url(#fqbdgsywnsgt2)" height="99.2188" id="ClientRepository" style="stroke:#A80036;stroke-width:1.5;" width="298" x="449" y="155.5"/><ellipse cx="544.75" cy="171.5" fill="#ADD1B2" rx="11" ry="11" style="stroke:#A80036;stroke-width:1.0;"/><path d="M547.0938,167.1719 C546.1563,166.7344 545.5625,166.5938 544.6875,166.5938 C542.0625,166.5938 540.0625,168.6719 540.0625,171.3906 L540.0625,172.5156 C540.0625,175.0938 542.1719,176.9844 545.0625,176.9844 C546.2813,176.9844 547.4375,176.6875 548.1875,176.1406 C548.7656,175.7344 549.0938,175.2813 549.0938,174.8906 C549.0938,174.4375 548.7031,174.0469 548.2344,174.0469 C548.0156,174.0469 547.8125,174.125 547.625,174.3125 C547.1719,174.7969 547.1719,174.7969 546.9844,174.8906 C546.5625,175.1563 545.875,175.2813 545.1094,175.2813 C543.0625,175.2813 541.7656,174.1875 541.7656,172.4844 L541.7656,171.3906 C541.7656,169.6094 543.0156,168.2969 544.75,168.2969 C545.3281,168.2969 545.9375,168.4531 546.4063,168.7031 C546.8906,168.9844 547.0625,169.2031 547.1563,169.6094 C547.2188,170.0156 547.25,170.1406 547.3906,170.2656 C547.5313,170.4063 547.7656,170.5156 547.9844,170.5156 C548.25,170.5156 548.5156,170.375 548.6875,170.1563 C548.7969,170 548.8281,169.8125 548.8281,169.3906 L548.8281,167.9688 C548.8281,167.5313 548.8125,167.4063 548.7188,167.25 C548.5625,166.9844 548.2813,166.8438 547.9844,166.8438 C547.6875,166.8438 547.4844,166.9375 547.2656,167.25 L547.0938,167.1719 Z " fill="#000000"/><text fill="#000000" font-family="sans-serif" font-size="12" lengthAdjust="spacing" textLength="98" x="565.25" y="175.6543">ClientRepository</text><line style="stroke:#A80036;stroke-width:1.5;" x1="450" x2="746" y1="187.5" y2="187.5"/><rect fill="none" height="6" style="stroke:#C82930;stroke-width:1.0;" width="6" x="457" y="195.5"/><text fill="#000000" font-family="sans-serif" font-size="11" lengthAdjust="spacing" textLength="272" x="469" y="201.7104">std::vector&lt;std::shared_ptr&lt;Client&gt;&gt; repository</text><line style="stroke:#A80036;stroke-width:1.5;" x1="450" x2="746" y1="208.3047" y2="208.3047"/><ellipse cx="460" cy="219.3047" fill="#84BE84" rx="3" ry="3" style="stroke:#038048;stroke-width:1.0;"/><text fill="#000000" font-family="sans-serif" font-size="11" lengthAdjust="spacing" textLength="101" x="469" y="222.5151">ClientRepository()</text><ellipse cx="460" cy="232.1094" fill="#84BE84" rx="3" ry="3" style="stroke:#038048;stroke-width:1.0;"/><text fill="#000000" font-family="sans-serif" font-size="11" lengthAdjust="spacing" textLength="110" x="469" y="235.3198">~ClientRepository()</text><ellipse cx="460" cy="244.9141" fill="#84BE84" rx="3" ry="3" style="stroke:#038048;stroke-width:1.0;"/><text fill="#000000" font-family="sans-serif" font-size="11" lengthAdjust="spacing" textLength="259" x="469" y="248.1245">virtual std::shared_ptr&lt;Client&gt; getByID(int id)</text><!--MD5=[e58866afa215b9e59d36b3df42b2909d]
class AbstractClientRepository--><rect fill="#FEFECE" filter="url(#fqbdgsywnsgt2)" height="48" id="AbstractClientRepository" style="stroke:#A80036;stroke-width:1.5;" width="180" x="508" y="41"/><ellipse cx="523" cy="57" fill="#ADD1B2" rx="11" ry="11" style="stroke:#A80036;stroke-width:1.0;"/><path d="M525.3438,52.6719 C524.4063,52.2344 523.8125,52.0938 522.9375,52.0938 C520.3125,52.0938 518.3125,54.1719 518.3125,56.8906 L518.3125,58.0156 C518.3125,60.5938 520.4219,62.4844 523.3125,62.4844 C524.5313,62.4844 525.6875,62.1875 526.4375,61.6406 C527.0156,61.2344 527.3438,60.7813 527.3438,60.3906 C527.3438,59.9375 526.9531,59.5469 526.4844,59.5469 C526.2656,59.5469 526.0625,59.625 525.875,59.8125 C525.4219,60.2969 525.4219,60.2969 525.2344,60.3906 C524.8125,60.6563 524.125,60.7813 523.3594,60.7813 C521.3125,60.7813 520.0156,59.6875 520.0156,57.9844 L520.0156,56.8906 C520.0156,55.1094 521.2656,53.7969 523,53.7969 C523.5781,53.7969 524.1875,53.9531 524.6563,54.2031 C525.1406,54.4844 525.3125,54.7031 525.4063,55.1094 C525.4688,55.5156 525.5,55.6406 525.6406,55.7656 C525.7813,55.9063 526.0156,56.0156 526.2344,56.0156 C526.5,56.0156 526.7656,55.875 526.9375,55.6563 C527.0469,55.5 527.0781,55.3125 527.0781,54.8906 L527.0781,53.4688 C527.0781,53.0313 527.0625,52.9063 526.9688,52.75 C526.8125,52.4844 526.5313,52.3438 526.2344,52.3438 C525.9375,52.3438 525.7344,52.4375 525.5156,52.75 L525.3438,52.6719 Z " fill="#000000"/><text fill="#000000" font-family="sans-serif" font-size="12" lengthAdjust="spacing" textLength="148" x="537" y="61.1543">AbstractClientRepository</text><line style="stroke:#A80036;stroke-width:1.5;" x1="509" x2="687" y1="73" y2="73"/><line style="stroke:#A80036;stroke-width:1.5;" x1="509" x2="687" y1="81" y2="81"/><!--MD5=[c3bb1760bb5a43eb1d6f2944409e4f10]
class VehicleMaintenanceRepository--><rect codeLine="33" fill="#FEFECE" filter="url(#fqbdgsywnsgt2)" height="99.2188" id="VehicleMaintenanceRepository" style="stroke:#A80036;stroke-width:1.5;" width="381" x="32.5" y="155.5"/><ellipse cx="126.75" cy="171.5" fill="#ADD1B2" rx="11" ry="11" style="stroke:#A80036;stroke-width:1.0;"/><path d="M129.0938,167.1719 C128.1563,166.7344 127.5625,166.5938 126.6875,166.5938 C124.0625,166.5938 122.0625,168.6719 122.0625,171.3906 L122.0625,172.5156 C122.0625,175.0938 124.1719,176.9844 127.0625,176.9844 C128.2813,176.9844 129.4375,176.6875 130.1875,176.1406 C130.7656,175.7344 131.0938,175.2813 131.0938,174.8906 C131.0938,174.4375 130.7031,174.0469 130.2344,174.0469 C130.0156,174.0469 129.8125,174.125 129.625,174.3125 C129.1719,174.7969 129.1719,174.7969 128.9844,174.8906 C128.5625,175.1563 127.875,175.2813 127.1094,175.2813 C125.0625,175.2813 123.7656,174.1875 123.7656,172.4844 L123.7656,171.3906 C123.7656,169.6094 125.0156,168.2969 126.75,168.2969 C127.3281,168.2969 127.9375,168.4531 128.4063,168.7031 C128.8906,168.9844 129.0625,169.2031 129.1563,169.6094 C129.2188,170.0156 129.25,170.1406 129.3906,170.2656 C129.5313,170.4063 129.7656,170.5156 129.9844,170.5156 C130.25,170.5156 130.5156,170.375 130.6875,170.1563 C130.7969,170 130.8281,169.8125 130.8281,169.3906 L130.8281,167.9688 C130.8281,167.5313 130.8125,167.4063 130.7188,167.25 C130.5625,166.9844 130.2813,166.8438 129.9844,166.8438 C129.6875,166.8438 129.4844,166.9375 129.2656,167.25 L129.0938,167.1719 Z " fill="#000000"/><text fill="#000000" font-family="sans-serif" font-size="12" lengthAdjust="spacing" textLength="184" x="147.25" y="175.6543">VehicleMaintenanceRepository</text><line style="stroke:#A80036;stroke-width:1.5;" x1="33.5" x2="412.5" y1="187.5" y2="187.5"/><rect fill="none" height="6" style="stroke:#C82930;stroke-width:1.0;" width="6" x="40.5" y="195.5"/><text fill="#000000" font-family="sans-serif" font-size="11" lengthAdjust="spacing" textLength="355" x="52.5" y="201.7104">std::vector&lt;std::shared_ptr&lt;VehicleMaintenance&gt;&gt; repository</text><line style="stroke:#A80036;stroke-width:1.5;" x1="33.5" x2="412.5" y1="208.3047" y2="208.3047"/><ellipse cx="43.5" cy="219.3047" fill="#84BE84" rx="3" ry="3" style="stroke:#038048;stroke-width:1.0;"/><text fill="#000000" font-family="sans-serif" font-size="11" lengthAdjust="spacing" textLength="184" x="52.5" y="222.5151">VehicleMaintenanceRepository()</text><ellipse cx="43.5" cy="232.1094" fill="#84BE84" rx="3" ry="3" style="stroke:#038048;stroke-width:1.0;"/><text fill="#000000" font-family="sans-serif" font-size="11" lengthAdjust="spacing" textLength="193" x="52.5" y="235.3198">~VehicleMaintenanceRepository()</text><ellipse cx="43.5" cy="244.9141" fill="#84BE84" rx="3" ry="3" style="stroke:#038048;stroke-width:1.0;"/><text fill="#000000" font-family="sans-serif" font-size="11" lengthAdjust="spacing" textLength="342" x="52.5" y="248.1245">virtual std::shared_ptr&lt;VehicleMaintenance&gt; getByID(int id)</text><!--MD5=[4961564bc52d781d7d053d9c0252ad97]
class AbstractVehicleMaintenanceRepository--><rect fill="#FEFECE" filter="url(#fqbdgsywnsgt2)" height="48" id="AbstractVehicleMaintenanceRepository" style="stroke:#A80036;stroke-width:1.5;" width="266" x="90" y="41"/><ellipse cx="105" cy="57" fill="#ADD1B2" rx="11" ry="11" style="stroke:#A80036;stroke-width:1.0;"/><path d="M107.3438,52.6719 C106.4063,52.2344 105.8125,52.0938 104.9375,52.0938 C102.3125,52.0938 100.3125,54.1719 100.3125,56.8906 L100.3125,58.0156 C100.3125,60.5938 102.4219,62.4844 105.3125,62.4844 C106.5313,62.4844 107.6875,62.1875 108.4375,61.6406 C109.0156,61.2344 109.3438,60.7813 109.3438,60.3906 C109.3438,59.9375 108.9531,59.5469 108.4844,59.5469 C108.2656,59.5469 108.0625,59.625 107.875,59.8125 C107.4219,60.2969 107.4219,60.2969 107.2344,60.3906 C106.8125,60.6563 106.125,60.7813 105.3594,60.7813 C103.3125,60.7813 102.0156,59.6875 102.0156,57.9844 L102.0156,56.8906 C102.0156,55.1094 103.2656,53.7969 105,53.7969 C105.5781,53.7969 106.1875,53.9531 106.6563,54.2031 C107.1406,54.4844 107.3125,54.7031 107.4063,55.1094 C107.4688,55.5156 107.5,55.6406 107.6406,55.7656 C107.7813,55.9063 108.0156,56.0156 108.2344,56.0156 C108.5,56.0156 108.7656,55.875 108.9375,55.6563 C109.0469,55.5 109.0781,55.3125 109.0781,54.8906 L109.0781,53.4688 C109.0781,53.0313 109.0625,52.9063 108.9688,52.75 C108.8125,52.4844 108.5313,52.3438 108.2344,52.3438 C107.9375,52.3438 107.7344,52.4375 107.5156,52.75 L107.3438,52.6719 Z " fill="#000000"/><text fill="#000000" font-family="sans-serif" font-size="12" lengthAdjust="spacing" textLength="234" x="119" y="61.1543">AbstractVehicleMaintenanceRepository</text><line style="stroke:#A80036;stroke-width:1.5;" x1="91" x2="355" y1="73" y2="73"/><line style="stroke:#A80036;stroke-width:1.5;" x1="91" x2="355" y1="81" y2="81"/><!--MD5=[2c5240d13aaa50d1ff13af9410bd3839]
reverse link AbstractCarClassificationRepository to CarClassificationRepository--><path codeLine="12" d="M1280,109.246 C1280,121.822 1280,135.732 1280,148.931 " fill="none" id="AbstractCarClassificationRepository-backto-CarClassificationRepository" style="stroke:#A80036;stroke-width:1.0;"/><polygon fill="none" points="1273,109.098,1280,89.098,1287,109.098,1273,109.098" style="stroke:#A80036;stroke-width:1.0;"/><!--MD5=[d4d42fbe5d1d93ccbbdc6838404a603c]
reverse link AbstractCarRepository to CarRepository--><path codeLine="22" d="M924,109.194 C924,123.836 924,140.29 924,155.329 " fill="none" id="AbstractCarRepository-backto-CarRepository" style="stroke:#A80036;stroke-width:1.0;"/><polygon fill="none" points="917,109.098,924,89.098,931,109.098,917,109.098" style="stroke:#A80036;stroke-width:1.0;"/><!--MD5=[628b0ab50405cbedee586cf80e0bb07f]
reverse link AbstractClientRepository to ClientRepository--><path codeLine="31" d="M598,109.194 C598,123.836 598,140.29 598,155.329 " fill="none" id="AbstractClientRepository-backto-ClientRepository" style="stroke:#A80036;stroke-width:1.0;"/><polygon fill="none" points="591,109.098,598,89.098,605,109.098,591,109.098" style="stroke:#A80036;stroke-width:1.0;"/><!--MD5=[9edb93c8b5926c9155d99b01a04452b9]
reverse link AbstractVehicleMaintenanceRepository to VehicleMaintenanceRepository--><path codeLine="40" d="M223,109.194 C223,123.836 223,140.29 223,155.329 " fill="none" id="AbstractVehicleMaintenanceRepository-backto-VehicleMaintenanceRepository" style="stroke:#A80036;stroke-width:1.0;"/><polygon fill="none" points="216,109.098,223,89.098,230,109.098,216,109.098" style="stroke:#A80036;stroke-width:1.0;"/><!--MD5=[3bbdeaf7ce878fbcda5e3a7ed77f8593]
@startuml
package "application.repository" {

class CarClassificationRepository {
    -std::vector<std::shared_ptr<CarClassification>> repository
    -std::shared_ptr<CarClassification> classificationNC

    +CarClassificationRepository()
    +~CarClassificationRepository()
    +virtual std::shared_ptr<CarClassification> getByID(int id)
}

AbstractCarClassificationRepository <|- - CarClassificationRepository

class CarRepository {
    -std::vector<std::shared_ptr<Car>> repository

    +CarRepository()
    +~CarRepository()
    +virtual std::shared_ptr<Car> getByID(int id)
}

AbstractCarRepository <|- - CarRepository

class ClientRepository {
    -std::vector<std::shared_ptr<Client>> repository
    +ClientRepository()
    +~ClientRepository()
    +virtual std::shared_ptr<Client> getByID(int id)
}

AbstractClientRepository <|- - ClientRepository

class VehicleMaintenanceRepository {
    -std::vector<std::shared_ptr<VehicleMaintenance>> repository
    +VehicleMaintenanceRepository()
    +~VehicleMaintenanceRepository()
    +virtual std::shared_ptr<VehicleMaintenance> getByID(int id)
}

AbstractVehicleMaintenanceRepository <|- - VehicleMaintenanceRepository


}
@enduml

PlantUML version 1.2021.2beta9(Unknown compile time)
(GPL source distribution)
Java Runtime: Java(TM) SE Runtime Environment
JVM: Java HotSpot(TM) 64-Bit Server VM
Default Encoding: UTF-8
Language: en
Country: US
--></g></svg>