<?xml version="1.0" encoding="UTF-8" standalone="no"?><svg xmlns="http://www.w3.org/2000/svg" xmlns:xlink="http://www.w3.org/1999/xlink" contentScriptType="application/ecmascript" contentStyleType="text/css" height="272px" preserveAspectRatio="none" style="width:833px;height:272px;" version="1.1" viewBox="0 0 833 272" width="833px" zoomAndPan="magnify"><defs><filter height="300%" id="frba3oqg8cu6m" width="300%" x="-1" y="-1"><feGaussianBlur result="blurOut" stdDeviation="2.0"/><feColorMatrix in="blurOut" result="blurOut2" type="matrix" values="0 0 0 0 0 0 0 0 0 0 0 0 0 0 0 0 0 0 .4 0"/><feOffset dx="4.0" dy="4.0" in="blurOut2" result="blurOut3"/><feBlend in="SourceGraphic" in2="blurOut3" mode="normal"/></filter></defs><g><!--MD5=[40d36efa5328a6495aa1c1a0d47a7e94]
cluster domain.repository--><polygon fill="#FFFFFF" filter="url(#frba3oqg8cu6m)" points="16,6,171,6,178,28.2969,816,28.2969,816,265,16,265,16,6" style="stroke:#000000;stroke-width:1.5;"/><line style="stroke:#000000;stroke-width:1.5;" x1="16" x2="178" y1="28.2969" y2="28.2969"/><text fill="#000000" font-family="sans-serif" font-size="14" font-weight="bold" lengthAdjust="spacing" textLength="149" x="20" y="20.9951">domain.repository</text><!--MD5=[4620f1108ed6536e801ceb31ce98a093]
class AbstractCarClassificationRepository--><rect codeLine="7" fill="#FEFECE" filter="url(#frba3oqg8cu6m)" height="60.8047" id="AbstractCarClassificationRepository" style="stroke:#A80036;stroke-width:1.5;" width="369" x="32.5" y="47.5"/><ellipse cx="107.25" cy="63.5" fill="#A9DCDF" rx="11" ry="11" style="stroke:#A80036;stroke-width:1.0;"/><path d="M109.3281,65.3125 L109.7188,66.2969 L109.3281,66.2969 C108.875,66.2969 108.7656,66.3125 108.6094,66.4219 C108.3594,66.5781 108.2031,66.8594 108.2031,67.1563 C108.2031,67.4219 108.3438,67.6719 108.5625,67.8281 C108.7031,67.9531 108.9063,68 109.3281,68 L111.6875,68 C112.0469,68 112.2656,67.9688 112.4063,67.875 C112.6563,67.7344 112.8125,67.4375 112.8125,67.1563 C112.8125,66.875 112.6719,66.625 112.4531,66.4688 C112.2813,66.3281 112.125,66.2969 111.6563,66.2969 L108.2656,58.0938 L104.5938,58.0938 C104.1406,58.0938 104.0156,58.1094 103.8594,58.2031 C103.6094,58.375 103.4531,58.6563 103.4531,58.9375 C103.4531,59.2188 103.5938,59.4688 103.8125,59.6406 C103.9844,59.75 104.1563,59.7813 104.5938,59.7813 L105.6719,59.7813 L103.0313,66.2969 C102.6094,66.2969 102.4531,66.3125 102.2969,66.4219 C102.0469,66.5781 101.8906,66.8594 101.8906,67.1563 C101.8906,67.7188 102.2656,68 103.0156,68 L105.2813,68 C105.6406,68 105.8594,67.9688 105.9844,67.875 C106.25,67.7344 106.3906,67.4375 106.3906,67.1563 C106.3906,66.875 106.2656,66.625 106.0469,66.4531 C105.875,66.3281 105.7344,66.2969 105.2813,66.2969 L104.8906,66.2969 L105.2813,65.3125 L109.3281,65.3125 Z M108.625,63.6094 L105.9531,63.6094 L107.2969,60.3438 L108.625,63.6094 Z " fill="#000000"/><text fill="#000000" font-family="sans-serif" font-size="12" font-style="italic" lengthAdjust="spacing" textLength="211" x="127.75" y="67.6543">AbstractCarClassificationRepository</text><line style="stroke:#A80036;stroke-width:1.5;" x1="33.5" x2="400.5" y1="79.5" y2="79.5"/><line style="stroke:#A80036;stroke-width:1.5;" x1="33.5" x2="400.5" y1="87.5" y2="87.5"/><ellipse cx="43.5" cy="98.5" fill="#84BE84" rx="3" ry="3" style="stroke:#038048;stroke-width:1.0;"/><text fill="#000000" font-family="sans-serif" font-size="11" lengthAdjust="spacing" textLength="343" x="52.5" y="101.7104">virtual std::shared_ptr&lt;CarClassification&gt; getByID(int id) = 0</text><!--MD5=[e28998c6c06350ddb6a4d2d37a062679]
class AbstractCarRepository--><rect codeLine="14" fill="#FEFECE" filter="url(#frba3oqg8cu6m)" height="73.6094" id="AbstractCarRepository" style="stroke:#A80036;stroke-width:1.5;" width="295" x="436.5" y="41"/><ellipse cx="512.75" cy="57" fill="#A9DCDF" rx="11" ry="11" style="stroke:#A80036;stroke-width:1.0;"/><path d="M514.8281,58.8125 L515.2188,59.7969 L514.8281,59.7969 C514.375,59.7969 514.2656,59.8125 514.1094,59.9219 C513.8594,60.0781 513.7031,60.3594 513.7031,60.6563 C513.7031,60.9219 513.8438,61.1719 514.0625,61.3281 C514.2031,61.4531 514.4063,61.5 514.8281,61.5 L517.1875,61.5 C517.5469,61.5 517.7656,61.4688 517.9063,61.375 C518.1563,61.2344 518.3125,60.9375 518.3125,60.6563 C518.3125,60.375 518.1719,60.125 517.9531,59.9688 C517.7813,59.8281 517.625,59.7969 517.1563,59.7969 L513.7656,51.5938 L510.0938,51.5938 C509.6406,51.5938 509.5156,51.6094 509.3594,51.7031 C509.1094,51.875 508.9531,52.1563 508.9531,52.4375 C508.9531,52.7188 509.0938,52.9688 509.3125,53.1406 C509.4844,53.25 509.6563,53.2813 510.0938,53.2813 L511.1719,53.2813 L508.5313,59.7969 C508.1094,59.7969 507.9531,59.8125 507.7969,59.9219 C507.5469,60.0781 507.3906,60.3594 507.3906,60.6563 C507.3906,61.2188 507.7656,61.5 508.5156,61.5 L510.7813,61.5 C511.1406,61.5 511.3594,61.4688 511.4844,61.375 C511.75,61.2344 511.8906,60.9375 511.8906,60.6563 C511.8906,60.375 511.7656,60.125 511.5469,59.9531 C511.375,59.8281 511.2344,59.7969 510.7813,59.7969 L510.3906,59.7969 L510.7813,58.8125 L514.8281,58.8125 Z M514.125,57.1094 L511.4531,57.1094 L512.7969,53.8438 L514.125,57.1094 Z " fill="#000000"/><text fill="#000000" font-family="sans-serif" font-size="12" font-style="italic" lengthAdjust="spacing" textLength="134" x="533.25" y="61.1543">AbstractCarRepository</text><line style="stroke:#A80036;stroke-width:1.5;" x1="437.5" x2="730.5" y1="73" y2="73"/><line style="stroke:#A80036;stroke-width:1.5;" x1="437.5" x2="730.5" y1="81" y2="81"/><ellipse cx="447.5" cy="92" fill="#84BE84" rx="3" ry="3" style="stroke:#038048;stroke-width:1.0;"/><text fill="#000000" font-family="sans-serif" font-size="11" lengthAdjust="spacing" textLength="261" x="456.5" y="95.2104">virtual void add(std::shared_ptr&lt;Car&gt; car) = 0</text><ellipse cx="447.5" cy="104.8047" fill="#84BE84" rx="3" ry="3" style="stroke:#038048;stroke-width:1.0;"/><text fill="#000000" font-family="sans-serif" font-size="11" lengthAdjust="spacing" textLength="269" x="456.5" y="108.0151">virtual std::shared_ptr&lt;Car&gt; getByID(int id) = 0</text><!--MD5=[e58866afa215b9e59d36b3df42b2909d]
class AbstractClientRepository--><rect codeLine="21" fill="#FEFECE" filter="url(#frba3oqg8cu6m)" height="73.6094" id="AbstractClientRepository" style="stroke:#A80036;stroke-width:1.5;" width="323" x="32.5" y="175"/><ellipse cx="115.75" cy="191" fill="#A9DCDF" rx="11" ry="11" style="stroke:#A80036;stroke-width:1.0;"/><path d="M117.8281,192.8125 L118.2188,193.7969 L117.8281,193.7969 C117.375,193.7969 117.2656,193.8125 117.1094,193.9219 C116.8594,194.0781 116.7031,194.3594 116.7031,194.6563 C116.7031,194.9219 116.8438,195.1719 117.0625,195.3281 C117.2031,195.4531 117.4063,195.5 117.8281,195.5 L120.1875,195.5 C120.5469,195.5 120.7656,195.4688 120.9063,195.375 C121.1563,195.2344 121.3125,194.9375 121.3125,194.6563 C121.3125,194.375 121.1719,194.125 120.9531,193.9688 C120.7813,193.8281 120.625,193.7969 120.1563,193.7969 L116.7656,185.5938 L113.0938,185.5938 C112.6406,185.5938 112.5156,185.6094 112.3594,185.7031 C112.1094,185.875 111.9531,186.1563 111.9531,186.4375 C111.9531,186.7188 112.0938,186.9688 112.3125,187.1406 C112.4844,187.25 112.6563,187.2813 113.0938,187.2813 L114.1719,187.2813 L111.5313,193.7969 C111.1094,193.7969 110.9531,193.8125 110.7969,193.9219 C110.5469,194.0781 110.3906,194.3594 110.3906,194.6563 C110.3906,195.2188 110.7656,195.5 111.5156,195.5 L113.7813,195.5 C114.1406,195.5 114.3594,195.4688 114.4844,195.375 C114.75,195.2344 114.8906,194.9375 114.8906,194.6563 C114.8906,194.375 114.7656,194.125 114.5469,193.9531 C114.375,193.8281 114.2344,193.7969 113.7813,193.7969 L113.3906,193.7969 L113.7813,192.8125 L117.8281,192.8125 Z M117.125,191.1094 L114.4531,191.1094 L115.7969,187.8438 L117.125,191.1094 Z " fill="#000000"/><text fill="#000000" font-family="sans-serif" font-size="12" font-style="italic" lengthAdjust="spacing" textLength="148" x="136.25" y="195.1543">AbstractClientRepository</text><line style="stroke:#A80036;stroke-width:1.5;" x1="33.5" x2="354.5" y1="207" y2="207"/><line style="stroke:#A80036;stroke-width:1.5;" x1="33.5" x2="354.5" y1="215" y2="215"/><ellipse cx="43.5" cy="226" fill="#84BE84" rx="3" ry="3" style="stroke:#038048;stroke-width:1.0;"/><text fill="#000000" font-family="sans-serif" font-size="11" lengthAdjust="spacing" textLength="297" x="52.5" y="229.2104">virtual void add(std::shared_ptr&lt;Client&gt; person) = 0</text><ellipse cx="43.5" cy="238.8047" fill="#84BE84" rx="3" ry="3" style="stroke:#038048;stroke-width:1.0;"/><text fill="#000000" font-family="sans-serif" font-size="11" lengthAdjust="spacing" textLength="283" x="52.5" y="242.0151">virtual std::shared_ptr&lt;Client&gt; getByID(int id) = 0</text><!--MD5=[4961564bc52d781d7d053d9c0252ad97]
class AbstractVehicleMaintenanceRepository--><rect codeLine="28" fill="#FEFECE" filter="url(#frba3oqg8cu6m)" height="73.6094" id="AbstractVehicleMaintenanceRepository" style="stroke:#A80036;stroke-width:1.5;" width="409" x="390.5" y="175"/><ellipse cx="473.75" cy="191" fill="#A9DCDF" rx="11" ry="11" style="stroke:#A80036;stroke-width:1.0;"/><path d="M475.8281,192.8125 L476.2188,193.7969 L475.8281,193.7969 C475.375,193.7969 475.2656,193.8125 475.1094,193.9219 C474.8594,194.0781 474.7031,194.3594 474.7031,194.6563 C474.7031,194.9219 474.8438,195.1719 475.0625,195.3281 C475.2031,195.4531 475.4063,195.5 475.8281,195.5 L478.1875,195.5 C478.5469,195.5 478.7656,195.4688 478.9063,195.375 C479.1563,195.2344 479.3125,194.9375 479.3125,194.6563 C479.3125,194.375 479.1719,194.125 478.9531,193.9688 C478.7813,193.8281 478.625,193.7969 478.1563,193.7969 L474.7656,185.5938 L471.0938,185.5938 C470.6406,185.5938 470.5156,185.6094 470.3594,185.7031 C470.1094,185.875 469.9531,186.1563 469.9531,186.4375 C469.9531,186.7188 470.0938,186.9688 470.3125,187.1406 C470.4844,187.25 470.6563,187.2813 471.0938,187.2813 L472.1719,187.2813 L469.5313,193.7969 C469.1094,193.7969 468.9531,193.8125 468.7969,193.9219 C468.5469,194.0781 468.3906,194.3594 468.3906,194.6563 C468.3906,195.2188 468.7656,195.5 469.5156,195.5 L471.7813,195.5 C472.1406,195.5 472.3594,195.4688 472.4844,195.375 C472.75,195.2344 472.8906,194.9375 472.8906,194.6563 C472.8906,194.375 472.7656,194.125 472.5469,193.9531 C472.375,193.8281 472.2344,193.7969 471.7813,193.7969 L471.3906,193.7969 L471.7813,192.8125 L475.8281,192.8125 Z M475.125,191.1094 L472.4531,191.1094 L473.7969,187.8438 L475.125,191.1094 Z " fill="#000000"/><text fill="#000000" font-family="sans-serif" font-size="12" font-style="italic" lengthAdjust="spacing" textLength="234" x="494.25" y="195.1543">AbstractVehicleMaintenanceRepository</text><line style="stroke:#A80036;stroke-width:1.5;" x1="391.5" x2="798.5" y1="207" y2="207"/><line style="stroke:#A80036;stroke-width:1.5;" x1="391.5" x2="798.5" y1="215" y2="215"/><ellipse cx="401.5" cy="226" fill="#84BE84" rx="3" ry="3" style="stroke:#038048;stroke-width:1.0;"/><text fill="#000000" font-family="sans-serif" font-size="11" lengthAdjust="spacing" textLength="383" x="410.5" y="229.2104">virtual void add(std::shared_ptr&lt;VehicleMaintenance&gt; person) = 0;</text><ellipse cx="401.5" cy="238.8047" fill="#84BE84" rx="3" ry="3" style="stroke:#038048;stroke-width:1.0;"/><text fill="#000000" font-family="sans-serif" font-size="11" lengthAdjust="spacing" textLength="369" x="410.5" y="242.0151">virtual std::shared_ptr&lt;VehicleMaintenance&gt; getByID(int id) = 0;</text><!--MD5=[a0e1cca966dd31900f347d649b1e6695]
link AbstractCarClassificationRepository to AbstractCarRepository--><!--MD5=[80ae1ccfeea3b64e4717970605e2dbec]
link AbstractCarClassificationRepository to AbstractClientRepository--><!--MD5=[3d23e854049d9b73ac558206058a7e92]
link AbstractClientRepository to AbstractVehicleMaintenanceRepository--><!--MD5=[ab8f701952e57b502d0071b6ab7307d4]
@startuml
package "domain.repository" {

class AbstractCarClassificationRepository {
    +virtual std::shared_ptr<CarClassification> getByID(int id) = 0
}

abstract   AbstractCarClassificationRepository

class AbstractCarRepository {
    +virtual void add(std::shared_ptr<Car> car) = 0
    +virtual std::shared_ptr<Car> getByID(int id) = 0
}

abstract   AbstractCarRepository

class AbstractClientRepository {
    +virtual void add(std::shared_ptr<Client> person) = 0
    +virtual std::shared_ptr<Client> getByID(int id) = 0
}

abstract   AbstractClientRepository

class AbstractVehicleMaintenanceRepository {
    +virtual void add(std::shared_ptr<VehicleMaintenance> person) = 0;
    +virtual std::shared_ptr<VehicleMaintenance> getByID(int id) = 0;
}

abstract   AbstractVehicleMaintenanceRepository

}
@enduml

PlantUML version 1.2021.2beta9(Unknown compile time)
(GPL source distribution)
Java Runtime: Java(TM) SE Runtime Environment
JVM: Java HotSpot(TM) 64-Bit Server VM
Default Encoding: UTF-8
Language: en
Country: US
--></g></svg>