<?xml version="1.0" encoding="UTF-8" standalone="no"?><svg xmlns="http://www.w3.org/2000/svg" xmlns:xlink="http://www.w3.org/1999/xlink" contentScriptType="application/ecmascript" contentStyleType="text/css" height="386px" preserveAspectRatio="none" style="width:3555px;height:386px;" version="1.1" viewBox="0 0 3555 386" width="3555px" zoomAndPan="magnify"><defs><filter height="300%" id="f12773gmqrjrp9" width="300%" x="-1" y="-1"><feGaussianBlur result="blurOut" stdDeviation="2.0"/><feColorMatrix in="blurOut" result="blurOut2" type="matrix" values="0 0 0 0 0 0 0 0 0 0 0 0 0 0 0 0 0 0 .4 0"/><feOffset dx="4.0" dy="4.0" in="blurOut2" result="blurOut3"/><feBlend in="SourceGraphic" in2="blurOut3" mode="normal"/></filter></defs><g><!--MD5=[d13b17dff4bb567125249ed33e524aed]
cluster domain.service--><polygon fill="#FFFFFF" filter="url(#f12773gmqrjrp9)" points="16,6,144,6,151,28.2969,3538,28.2969,3538,379,16,379,16,6" style="stroke:#000000;stroke-width:1.5;"/><line style="stroke:#000000;stroke-width:1.5;" x1="16" x2="151" y1="28.2969" y2="28.2969"/><text fill="#000000" font-family="sans-serif" font-size="14" font-weight="bold" lengthAdjust="spacing" textLength="122" x="20" y="20.9951">domain.service</text><!--MD5=[8046d41739a3b7212f5f269f76384f69]
class AbstractAddressFactory--><rect codeLine="7" fill="#FEFECE" filter="url(#f12773gmqrjrp9)" height="73.6094" id="AbstractAddressFactory" style="stroke:#A80036;stroke-width:1.5;" width="771" x="2750.5" y="60"/><ellipse cx="3059.75" cy="76" fill="#A9DCDF" rx="11" ry="11" style="stroke:#A80036;stroke-width:1.0;"/><path d="M3061.8281,77.8125 L3062.2188,78.7969 L3061.8281,78.7969 C3061.375,78.7969 3061.2656,78.8125 3061.1094,78.9219 C3060.8594,79.0781 3060.7031,79.3594 3060.7031,79.6563 C3060.7031,79.9219 3060.8438,80.1719 3061.0625,80.3281 C3061.2031,80.4531 3061.4063,80.5 3061.8281,80.5 L3064.1875,80.5 C3064.5469,80.5 3064.7656,80.4688 3064.9063,80.375 C3065.1563,80.2344 3065.3125,79.9375 3065.3125,79.6563 C3065.3125,79.375 3065.1719,79.125 3064.9531,78.9688 C3064.7813,78.8281 3064.625,78.7969 3064.1563,78.7969 L3060.7656,70.5938 L3057.0938,70.5938 C3056.6406,70.5938 3056.5156,70.6094 3056.3594,70.7031 C3056.1094,70.875 3055.9531,71.1563 3055.9531,71.4375 C3055.9531,71.7188 3056.0938,71.9688 3056.3125,72.1406 C3056.4844,72.25 3056.6563,72.2813 3057.0938,72.2813 L3058.1719,72.2813 L3055.5313,78.7969 C3055.1094,78.7969 3054.9531,78.8125 3054.7969,78.9219 C3054.5469,79.0781 3054.3906,79.3594 3054.3906,79.6563 C3054.3906,80.2188 3054.7656,80.5 3055.5156,80.5 L3057.7813,80.5 C3058.1406,80.5 3058.3594,80.4688 3058.4844,80.375 C3058.75,80.2344 3058.8906,79.9375 3058.8906,79.6563 C3058.8906,79.375 3058.7656,79.125 3058.5469,78.9531 C3058.375,78.8281 3058.2344,78.7969 3057.7813,78.7969 L3057.3906,78.7969 L3057.7813,77.8125 L3061.8281,77.8125 Z M3061.125,76.1094 L3058.4531,76.1094 L3059.7969,72.8438 L3061.125,76.1094 Z " fill="#000000"/><text fill="#000000" font-family="sans-serif" font-size="12" font-style="italic" lengthAdjust="spacing" textLength="144" x="3080.25" y="80.1543">AbstractAddressFactory</text><line style="stroke:#A80036;stroke-width:1.5;" x1="2751.5" x2="3520.5" y1="92" y2="92"/><line style="stroke:#A80036;stroke-width:1.5;" x1="2751.5" x2="3520.5" y1="100" y2="100"/><ellipse cx="2761.5" cy="111" fill="#84BE84" rx="3" ry="3" style="stroke:#038048;stroke-width:1.0;"/><text fill="#000000" font-family="sans-serif" font-size="11" lengthAdjust="spacing" textLength="745" x="2770.5" y="114.2104">virtual std::shared_ptr&lt;Address&gt; get(int id,std::string addressDescription,std::string addressComplement,std::string numberAddress,</text><text fill="#000000" font-family="sans-serif" font-size="11" lengthAdjust="spacing" textLength="410" x="2770.5" y="127.0151">std::string zipCode,std::string city,std::string state,std::string country) = 0;</text><!--MD5=[fa0bb17eeb35cbb3656620fbfc839303]
class AbstractCarFactory--><rect codeLine="14" fill="#FEFECE" filter="url(#f12773gmqrjrp9)" height="73.6094" id="AbstractCarFactory" style="stroke:#A80036;stroke-width:1.5;" width="556" x="2006" y="60"/><ellipse cx="2221.75" cy="76" fill="#A9DCDF" rx="11" ry="11" style="stroke:#A80036;stroke-width:1.0;"/><path d="M2223.8281,77.8125 L2224.2188,78.7969 L2223.8281,78.7969 C2223.375,78.7969 2223.2656,78.8125 2223.1094,78.9219 C2222.8594,79.0781 2222.7031,79.3594 2222.7031,79.6563 C2222.7031,79.9219 2222.8438,80.1719 2223.0625,80.3281 C2223.2031,80.4531 2223.4063,80.5 2223.8281,80.5 L2226.1875,80.5 C2226.5469,80.5 2226.7656,80.4688 2226.9063,80.375 C2227.1563,80.2344 2227.3125,79.9375 2227.3125,79.6563 C2227.3125,79.375 2227.1719,79.125 2226.9531,78.9688 C2226.7813,78.8281 2226.625,78.7969 2226.1563,78.7969 L2222.7656,70.5938 L2219.0938,70.5938 C2218.6406,70.5938 2218.5156,70.6094 2218.3594,70.7031 C2218.1094,70.875 2217.9531,71.1563 2217.9531,71.4375 C2217.9531,71.7188 2218.0938,71.9688 2218.3125,72.1406 C2218.4844,72.25 2218.6563,72.2813 2219.0938,72.2813 L2220.1719,72.2813 L2217.5313,78.7969 C2217.1094,78.7969 2216.9531,78.8125 2216.7969,78.9219 C2216.5469,79.0781 2216.3906,79.3594 2216.3906,79.6563 C2216.3906,80.2188 2216.7656,80.5 2217.5156,80.5 L2219.7813,80.5 C2220.1406,80.5 2220.3594,80.4688 2220.4844,80.375 C2220.75,80.2344 2220.8906,79.9375 2220.8906,79.6563 C2220.8906,79.375 2220.7656,79.125 2220.5469,78.9531 C2220.375,78.8281 2220.2344,78.7969 2219.7813,78.7969 L2219.3906,78.7969 L2219.7813,77.8125 L2223.8281,77.8125 Z M2223.125,76.1094 L2220.4531,76.1094 L2221.7969,72.8438 L2223.125,76.1094 Z " fill="#000000"/><text fill="#000000" font-family="sans-serif" font-size="12" font-style="italic" lengthAdjust="spacing" textLength="116" x="2242.25" y="80.1543">AbstractCarFactory</text><line style="stroke:#A80036;stroke-width:1.5;" x1="2007" x2="2561" y1="92" y2="92"/><line style="stroke:#A80036;stroke-width:1.5;" x1="2007" x2="2561" y1="100" y2="100"/><ellipse cx="2017" cy="111" fill="#84BE84" rx="3" ry="3" style="stroke:#038048;stroke-width:1.0;"/><text fill="#000000" font-family="sans-serif" font-size="11" lengthAdjust="spacing" textLength="530" x="2026" y="114.2104">virtual std::shared_ptr&lt;Car&gt; get(int id,std::string brand,std::string model,std::string description,</text><text fill="#000000" font-family="sans-serif" font-size="11" lengthAdjust="spacing" textLength="424" x="2026" y="127.0151">std::string color,std::string registrationPlate,std::string renavan,int year) = 0;</text><!--MD5=[e92b7cbe8eac4288a0b78a598f5aa6da]
class AbstractClientFactory--><rect codeLine="21" fill="#FEFECE" filter="url(#f12773gmqrjrp9)" height="73.6094" id="AbstractClientFactory" style="stroke:#A80036;stroke-width:1.5;" width="442" x="1253" y="60"/><ellipse cx="1404.75" cy="76" fill="#A9DCDF" rx="11" ry="11" style="stroke:#A80036;stroke-width:1.0;"/><path d="M1406.8281,77.8125 L1407.2188,78.7969 L1406.8281,78.7969 C1406.375,78.7969 1406.2656,78.8125 1406.1094,78.9219 C1405.8594,79.0781 1405.7031,79.3594 1405.7031,79.6563 C1405.7031,79.9219 1405.8438,80.1719 1406.0625,80.3281 C1406.2031,80.4531 1406.4063,80.5 1406.8281,80.5 L1409.1875,80.5 C1409.5469,80.5 1409.7656,80.4688 1409.9063,80.375 C1410.1563,80.2344 1410.3125,79.9375 1410.3125,79.6563 C1410.3125,79.375 1410.1719,79.125 1409.9531,78.9688 C1409.7813,78.8281 1409.625,78.7969 1409.1563,78.7969 L1405.7656,70.5938 L1402.0938,70.5938 C1401.6406,70.5938 1401.5156,70.6094 1401.3594,70.7031 C1401.1094,70.875 1400.9531,71.1563 1400.9531,71.4375 C1400.9531,71.7188 1401.0938,71.9688 1401.3125,72.1406 C1401.4844,72.25 1401.6563,72.2813 1402.0938,72.2813 L1403.1719,72.2813 L1400.5313,78.7969 C1400.1094,78.7969 1399.9531,78.8125 1399.7969,78.9219 C1399.5469,79.0781 1399.3906,79.3594 1399.3906,79.6563 C1399.3906,80.2188 1399.7656,80.5 1400.5156,80.5 L1402.7813,80.5 C1403.1406,80.5 1403.3594,80.4688 1403.4844,80.375 C1403.75,80.2344 1403.8906,79.9375 1403.8906,79.6563 C1403.8906,79.375 1403.7656,79.125 1403.5469,78.9531 C1403.375,78.8281 1403.2344,78.7969 1402.7813,78.7969 L1402.3906,78.7969 L1402.7813,77.8125 L1406.8281,77.8125 Z M1406.125,76.1094 L1403.4531,76.1094 L1404.7969,72.8438 L1406.125,76.1094 Z " fill="#000000"/><text fill="#000000" font-family="sans-serif" font-size="12" font-style="italic" lengthAdjust="spacing" textLength="130" x="1425.25" y="80.1543">AbstractClientFactory</text><line style="stroke:#A80036;stroke-width:1.5;" x1="1254" x2="1694" y1="92" y2="92"/><line style="stroke:#A80036;stroke-width:1.5;" x1="1254" x2="1694" y1="100" y2="100"/><ellipse cx="1264" cy="111" fill="#84BE84" rx="3" ry="3" style="stroke:#038048;stroke-width:1.0;"/><text fill="#000000" font-family="sans-serif" font-size="11" lengthAdjust="spacing" textLength="416" x="1273" y="114.2104">virtual std::shared_ptr&lt;Client&gt; get(int id,std::shared_ptr&lt;Person&gt; person,</text><text fill="#000000" font-family="sans-serif" font-size="11" lengthAdjust="spacing" textLength="227" x="1273" y="127.0151">std::shared_ptr&lt;Address&gt; address) = 0;</text><!--MD5=[c51633bccafdb1e12196f203c7e5d32c]
class PersonBuilder--><rect codeLine="31" fill="#FEFECE" filter="url(#f12773gmqrjrp9)" height="112.0234" id="PersonBuilder" style="stroke:#A80036;stroke-width:1.5;" width="600" x="504" y="41"/><ellipse cx="758.75" cy="57" fill="#A9DCDF" rx="11" ry="11" style="stroke:#A80036;stroke-width:1.0;"/><path d="M760.8281,58.8125 L761.2188,59.7969 L760.8281,59.7969 C760.375,59.7969 760.2656,59.8125 760.1094,59.9219 C759.8594,60.0781 759.7031,60.3594 759.7031,60.6563 C759.7031,60.9219 759.8438,61.1719 760.0625,61.3281 C760.2031,61.4531 760.4063,61.5 760.8281,61.5 L763.1875,61.5 C763.5469,61.5 763.7656,61.4688 763.9063,61.375 C764.1563,61.2344 764.3125,60.9375 764.3125,60.6563 C764.3125,60.375 764.1719,60.125 763.9531,59.9688 C763.7813,59.8281 763.625,59.7969 763.1563,59.7969 L759.7656,51.5938 L756.0938,51.5938 C755.6406,51.5938 755.5156,51.6094 755.3594,51.7031 C755.1094,51.875 754.9531,52.1563 754.9531,52.4375 C754.9531,52.7188 755.0938,52.9688 755.3125,53.1406 C755.4844,53.25 755.6563,53.2813 756.0938,53.2813 L757.1719,53.2813 L754.5313,59.7969 C754.1094,59.7969 753.9531,59.8125 753.7969,59.9219 C753.5469,60.0781 753.3906,60.3594 753.3906,60.6563 C753.3906,61.2188 753.7656,61.5 754.5156,61.5 L756.7813,61.5 C757.1406,61.5 757.3594,61.4688 757.4844,61.375 C757.75,61.2344 757.8906,60.9375 757.8906,60.6563 C757.8906,60.375 757.7656,60.125 757.5469,59.9531 C757.375,59.8281 757.2344,59.7969 756.7813,59.7969 L756.3906,59.7969 L756.7813,58.8125 L760.8281,58.8125 Z M760.125,57.1094 L757.4531,57.1094 L758.7969,53.8438 L760.125,57.1094 Z " fill="#000000"/><text fill="#000000" font-family="sans-serif" font-size="12" font-style="italic" lengthAdjust="spacing" textLength="82" x="779.25" y="61.1543">PersonBuilder</text><line style="stroke:#A80036;stroke-width:1.5;" x1="505" x2="1103" y1="73" y2="73"/><line style="stroke:#A80036;stroke-width:1.5;" x1="505" x2="1103" y1="81" y2="81"/><ellipse cx="515" cy="92" fill="#84BE84" rx="3" ry="3" style="stroke:#038048;stroke-width:1.0;"/><text fill="#000000" font-family="sans-serif" font-size="11" lengthAdjust="spacing" textLength="318" x="524" y="95.2104">virtual std::shared_ptr&lt;PersonBuilder&gt; withId(int id) = 0;</text><ellipse cx="515" cy="104.8047" fill="#84BE84" rx="3" ry="3" style="stroke:#038048;stroke-width:1.0;"/><text fill="#000000" font-family="sans-serif" font-size="11" lengthAdjust="spacing" textLength="405" x="524" y="108.0151">virtual std::shared_ptr&lt;PersonBuilder&gt; withName(std::string name) = 0;</text><ellipse cx="515" cy="117.6094" fill="#84BE84" rx="3" ry="3" style="stroke:#038048;stroke-width:1.0;"/><text fill="#000000" font-family="sans-serif" font-size="11" lengthAdjust="spacing" textLength="436" x="524" y="120.8198">virtual std::shared_ptr&lt;PersonBuilder&gt; withDateOfBirth(tm* dateOfbirth) = 0;</text><ellipse cx="515" cy="130.4141" fill="#84BE84" rx="3" ry="3" style="stroke:#038048;stroke-width:1.0;"/><text fill="#000000" font-family="sans-serif" font-size="11" lengthAdjust="spacing" textLength="574" x="524" y="133.6245">virtual std::shared_ptr&lt;PersonBuilder&gt; withIdentificationNumber(std::string identificationNumber) = 0;</text><ellipse cx="515" cy="143.2188" fill="#84BE84" rx="3" ry="3" style="stroke:#038048;stroke-width:1.0;"/><text fill="#000000" font-family="sans-serif" font-size="11" lengthAdjust="spacing" textLength="244" x="524" y="146.4292">virtual std::shared_ptr&lt;Person&gt; build() = 0;</text><!--MD5=[4a457b1be1e9c1591fa92e038c5ec110]
class AddressFactory--><rect codeLine="33" fill="#FEFECE" filter="url(#f12773gmqrjrp9)" height="73.6094" id="AddressFactory" style="stroke:#A80036;stroke-width:1.5;" width="732" x="2790" y="251"/><ellipse cx="3103.75" cy="267" fill="#ADD1B2" rx="11" ry="11" style="stroke:#A80036;stroke-width:1.0;"/><path d="M3106.0938,262.6719 C3105.1563,262.2344 3104.5625,262.0938 3103.6875,262.0938 C3101.0625,262.0938 3099.0625,264.1719 3099.0625,266.8906 L3099.0625,268.0156 C3099.0625,270.5938 3101.1719,272.4844 3104.0625,272.4844 C3105.2813,272.4844 3106.4375,272.1875 3107.1875,271.6406 C3107.7656,271.2344 3108.0938,270.7813 3108.0938,270.3906 C3108.0938,269.9375 3107.7031,269.5469 3107.2344,269.5469 C3107.0156,269.5469 3106.8125,269.625 3106.625,269.8125 C3106.1719,270.2969 3106.1719,270.2969 3105.9844,270.3906 C3105.5625,270.6563 3104.875,270.7813 3104.1094,270.7813 C3102.0625,270.7813 3100.7656,269.6875 3100.7656,267.9844 L3100.7656,266.8906 C3100.7656,265.1094 3102.0156,263.7969 3103.75,263.7969 C3104.3281,263.7969 3104.9375,263.9531 3105.4063,264.2031 C3105.8906,264.4844 3106.0625,264.7031 3106.1563,265.1094 C3106.2188,265.5156 3106.25,265.6406 3106.3906,265.7656 C3106.5313,265.9063 3106.7656,266.0156 3106.9844,266.0156 C3107.25,266.0156 3107.5156,265.875 3107.6875,265.6563 C3107.7969,265.5 3107.8281,265.3125 3107.8281,264.8906 L3107.8281,263.4688 C3107.8281,263.0313 3107.8125,262.9063 3107.7188,262.75 C3107.5625,262.4844 3107.2813,262.3438 3106.9844,262.3438 C3106.6875,262.3438 3106.4844,262.4375 3106.2656,262.75 L3106.0938,262.6719 Z " fill="#000000"/><text fill="#000000" font-family="sans-serif" font-size="12" lengthAdjust="spacing" textLength="96" x="3124.25" y="271.1543">AddressFactory</text><line style="stroke:#A80036;stroke-width:1.5;" x1="2791" x2="3521" y1="283" y2="283"/><line style="stroke:#A80036;stroke-width:1.5;" x1="2791" x2="3521" y1="291" y2="291"/><ellipse cx="2801" cy="302" fill="#84BE84" rx="3" ry="3" style="stroke:#038048;stroke-width:1.0;"/><text fill="#000000" font-family="sans-serif" font-size="11" lengthAdjust="spacing" textLength="706" x="2810" y="305.2104">std::shared_ptr&lt;Address&gt; get(int id,std::string addressDescription,std::string addressComplement,std::string numberAddress,</text><text fill="#000000" font-family="sans-serif" font-size="11" lengthAdjust="spacing" textLength="386" x="2810" y="318.0151">std::string zipCode,std::string city,std::string state,std::string country);</text><!--MD5=[53b73faa542d863c3f18097044ae536a]
class CarFactory--><rect codeLine="40" fill="#FEFECE" filter="url(#f12773gmqrjrp9)" height="73.6094" id="CarFactory" style="stroke:#A80036;stroke-width:1.5;" width="942" x="1813" y="251"/><ellipse cx="2247.25" cy="267" fill="#ADD1B2" rx="11" ry="11" style="stroke:#A80036;stroke-width:1.0;"/><path d="M2249.5938,262.6719 C2248.6563,262.2344 2248.0625,262.0938 2247.1875,262.0938 C2244.5625,262.0938 2242.5625,264.1719 2242.5625,266.8906 L2242.5625,268.0156 C2242.5625,270.5938 2244.6719,272.4844 2247.5625,272.4844 C2248.7813,272.4844 2249.9375,272.1875 2250.6875,271.6406 C2251.2656,271.2344 2251.5938,270.7813 2251.5938,270.3906 C2251.5938,269.9375 2251.2031,269.5469 2250.7344,269.5469 C2250.5156,269.5469 2250.3125,269.625 2250.125,269.8125 C2249.6719,270.2969 2249.6719,270.2969 2249.4844,270.3906 C2249.0625,270.6563 2248.375,270.7813 2247.6094,270.7813 C2245.5625,270.7813 2244.2656,269.6875 2244.2656,267.9844 L2244.2656,266.8906 C2244.2656,265.1094 2245.5156,263.7969 2247.25,263.7969 C2247.8281,263.7969 2248.4375,263.9531 2248.9063,264.2031 C2249.3906,264.4844 2249.5625,264.7031 2249.6563,265.1094 C2249.7188,265.5156 2249.75,265.6406 2249.8906,265.7656 C2250.0313,265.9063 2250.2656,266.0156 2250.4844,266.0156 C2250.75,266.0156 2251.0156,265.875 2251.1875,265.6563 C2251.2969,265.5 2251.3281,265.3125 2251.3281,264.8906 L2251.3281,263.4688 C2251.3281,263.0313 2251.3125,262.9063 2251.2188,262.75 C2251.0625,262.4844 2250.7813,262.3438 2250.4844,262.3438 C2250.1875,262.3438 2249.9844,262.4375 2249.7656,262.75 L2249.5938,262.6719 Z " fill="#000000"/><text fill="#000000" font-family="sans-serif" font-size="12" lengthAdjust="spacing" textLength="65" x="2267.75" y="271.1543">CarFactory</text><line style="stroke:#A80036;stroke-width:1.5;" x1="1814" x2="2754" y1="283" y2="283"/><line style="stroke:#A80036;stroke-width:1.5;" x1="1814" x2="2754" y1="291" y2="291"/><ellipse cx="1824" cy="302" fill="#84BE84" rx="3" ry="3" style="stroke:#038048;stroke-width:1.0;"/><text fill="#000000" font-family="sans-serif" font-size="11" lengthAdjust="spacing" textLength="68" x="1833" y="305.2104">CarFactory()</text><ellipse cx="1824" cy="314.8047" fill="#84BE84" rx="3" ry="3" style="stroke:#038048;stroke-width:1.0;"/><text fill="#000000" font-family="sans-serif" font-size="11" lengthAdjust="spacing" textLength="916" x="1833" y="318.0151">std::shared_ptr&lt;Car&gt; get(int id, std::string brand, std::string model, std::string description, std::string color, std::string registrationPlate, std::string renavan, int year)</text><!--MD5=[884ac5b0da14c1f0e932b00d9a4079f0]
class ClientFactory--><rect codeLine="47" fill="#FEFECE" filter="url(#f12773gmqrjrp9)" height="73.6094" id="ClientFactory" style="stroke:#A80036;stroke-width:1.5;" width="607" x="1170.5" y="251"/><ellipse cx="1430.75" cy="267" fill="#ADD1B2" rx="11" ry="11" style="stroke:#A80036;stroke-width:1.0;"/><path d="M1433.0938,262.6719 C1432.1563,262.2344 1431.5625,262.0938 1430.6875,262.0938 C1428.0625,262.0938 1426.0625,264.1719 1426.0625,266.8906 L1426.0625,268.0156 C1426.0625,270.5938 1428.1719,272.4844 1431.0625,272.4844 C1432.2813,272.4844 1433.4375,272.1875 1434.1875,271.6406 C1434.7656,271.2344 1435.0938,270.7813 1435.0938,270.3906 C1435.0938,269.9375 1434.7031,269.5469 1434.2344,269.5469 C1434.0156,269.5469 1433.8125,269.625 1433.625,269.8125 C1433.1719,270.2969 1433.1719,270.2969 1432.9844,270.3906 C1432.5625,270.6563 1431.875,270.7813 1431.1094,270.7813 C1429.0625,270.7813 1427.7656,269.6875 1427.7656,267.9844 L1427.7656,266.8906 C1427.7656,265.1094 1429.0156,263.7969 1430.75,263.7969 C1431.3281,263.7969 1431.9375,263.9531 1432.4063,264.2031 C1432.8906,264.4844 1433.0625,264.7031 1433.1563,265.1094 C1433.2188,265.5156 1433.25,265.6406 1433.3906,265.7656 C1433.5313,265.9063 1433.7656,266.0156 1433.9844,266.0156 C1434.25,266.0156 1434.5156,265.875 1434.6875,265.6563 C1434.7969,265.5 1434.8281,265.3125 1434.8281,264.8906 L1434.8281,263.4688 C1434.8281,263.0313 1434.8125,262.9063 1434.7188,262.75 C1434.5625,262.4844 1434.2813,262.3438 1433.9844,262.3438 C1433.6875,262.3438 1433.4844,262.4375 1433.2656,262.75 L1433.0938,262.6719 Z " fill="#000000"/><text fill="#000000" font-family="sans-serif" font-size="12" lengthAdjust="spacing" textLength="78" x="1451.25" y="271.1543">ClientFactory</text><line style="stroke:#A80036;stroke-width:1.5;" x1="1171.5" x2="1776.5" y1="283" y2="283"/><line style="stroke:#A80036;stroke-width:1.5;" x1="1171.5" x2="1776.5" y1="291" y2="291"/><ellipse cx="1181.5" cy="302" fill="#84BE84" rx="3" ry="3" style="stroke:#038048;stroke-width:1.0;"/><text fill="#000000" font-family="sans-serif" font-size="11" lengthAdjust="spacing" textLength="82" x="1190.5" y="305.2104">ClientFactory()</text><ellipse cx="1181.5" cy="314.8047" fill="#84BE84" rx="3" ry="3" style="stroke:#038048;stroke-width:1.0;"/><text fill="#000000" font-family="sans-serif" font-size="11" lengthAdjust="spacing" textLength="581" x="1190.5" y="318.0151">std::shared_ptr&lt;Client&gt; get(int id,std::shared_ptr&lt;Person&gt; person, std::shared_ptr&lt;Address&gt; address)</text><!--MD5=[825be76caad924b235e242361fe47f4b]
class LegalPersonBuilder--><rect codeLine="54" fill="#FEFECE" filter="url(#f12773gmqrjrp9)" height="150.4375" id="LegalPersonBuilder" style="stroke:#A80036;stroke-width:1.5;" width="534" x="32" y="213"/><ellipse cx="237.25" cy="229" fill="#ADD1B2" rx="11" ry="11" style="stroke:#A80036;stroke-width:1.0;"/><path d="M239.5938,224.6719 C238.6563,224.2344 238.0625,224.0938 237.1875,224.0938 C234.5625,224.0938 232.5625,226.1719 232.5625,228.8906 L232.5625,230.0156 C232.5625,232.5938 234.6719,234.4844 237.5625,234.4844 C238.7813,234.4844 239.9375,234.1875 240.6875,233.6406 C241.2656,233.2344 241.5938,232.7813 241.5938,232.3906 C241.5938,231.9375 241.2031,231.5469 240.7344,231.5469 C240.5156,231.5469 240.3125,231.625 240.125,231.8125 C239.6719,232.2969 239.6719,232.2969 239.4844,232.3906 C239.0625,232.6563 238.375,232.7813 237.6094,232.7813 C235.5625,232.7813 234.2656,231.6875 234.2656,229.9844 L234.2656,228.8906 C234.2656,227.1094 235.5156,225.7969 237.25,225.7969 C237.8281,225.7969 238.4375,225.9531 238.9063,226.2031 C239.3906,226.4844 239.5625,226.7031 239.6563,227.1094 C239.7188,227.5156 239.75,227.6406 239.8906,227.7656 C240.0313,227.9063 240.2656,228.0156 240.4844,228.0156 C240.75,228.0156 241.0156,227.875 241.1875,227.6563 C241.2969,227.5 241.3281,227.3125 241.3281,226.8906 L241.3281,225.4688 C241.3281,225.0313 241.3125,224.9063 241.2188,224.75 C241.0625,224.4844 240.7813,224.3438 240.4844,224.3438 C240.1875,224.3438 239.9844,224.4375 239.7656,224.75 L239.5938,224.6719 Z " fill="#000000"/><text fill="#000000" font-family="sans-serif" font-size="12" lengthAdjust="spacing" textLength="115" x="257.75" y="233.1543">LegalPersonBuilder</text><line style="stroke:#A80036;stroke-width:1.5;" x1="33" x2="565" y1="245" y2="245"/><rect fill="none" height="6" style="stroke:#C82930;stroke-width:1.0;" width="6" x="40" y="253"/><text fill="#000000" font-family="sans-serif" font-size="11" lengthAdjust="spacing" textLength="240" x="52" y="259.2104">std::shared_ptr&lt;LegalPerson&gt; legalPerson</text><line style="stroke:#A80036;stroke-width:1.5;" x1="33" x2="565" y1="265.8047" y2="265.8047"/><ellipse cx="43" cy="276.8047" fill="#84BE84" rx="3" ry="3" style="stroke:#038048;stroke-width:1.0;"/><text fill="#000000" font-family="sans-serif" font-size="11" lengthAdjust="spacing" textLength="117" x="52" y="280.0151">LegalPersonBuilder()</text><ellipse cx="43" cy="289.6094" fill="#84BE84" rx="3" ry="3" style="stroke:#038048;stroke-width:1.0;"/><text fill="#000000" font-family="sans-serif" font-size="11" lengthAdjust="spacing" textLength="165" x="52" y="292.8198">virtual ~LegalPersonBuilder()</text><ellipse cx="43" cy="302.4141" fill="#84BE84" rx="3" ry="3" style="stroke:#038048;stroke-width:1.0;"/><text fill="#000000" font-family="sans-serif" font-size="11" lengthAdjust="spacing" textLength="252" x="52" y="305.6245">std::shared_ptr&lt;PersonBuilder&gt; withId(int id)</text><ellipse cx="43" cy="315.2188" fill="#84BE84" rx="3" ry="3" style="stroke:#038048;stroke-width:1.0;"/><text fill="#000000" font-family="sans-serif" font-size="11" lengthAdjust="spacing" textLength="339" x="52" y="318.4292">std::shared_ptr&lt;PersonBuilder&gt; withName(std::string name)</text><ellipse cx="43" cy="328.0234" fill="#84BE84" rx="3" ry="3" style="stroke:#038048;stroke-width:1.0;"/><text fill="#000000" font-family="sans-serif" font-size="11" lengthAdjust="spacing" textLength="370" x="52" y="331.2339">std::shared_ptr&lt;PersonBuilder&gt; withDateOfBirth(tm* dateOfbirth)</text><ellipse cx="43" cy="340.8281" fill="#84BE84" rx="3" ry="3" style="stroke:#038048;stroke-width:1.0;"/><text fill="#000000" font-family="sans-serif" font-size="11" lengthAdjust="spacing" textLength="508" x="52" y="344.0386">std::shared_ptr&lt;PersonBuilder&gt; withIdentificationNumber(std::string identificationNumber)</text><ellipse cx="43" cy="353.6328" fill="#84BE84" rx="3" ry="3" style="stroke:#038048;stroke-width:1.0;"/><text fill="#000000" font-family="sans-serif" font-size="11" lengthAdjust="spacing" textLength="178" x="52" y="356.8433">std::shared_ptr&lt;Person&gt; build()</text><!--MD5=[2a223fdbf9dfdb6d0a766c161153829c]
class std::enable_shared_from_this--><rect fill="#FEFECE" filter="url(#f12773gmqrjrp9)" height="48" id="std::enable_shared_from_this" style="stroke:#A80036;stroke-width:1.5;" width="209" x="226.5" y="73"/><ellipse cx="241.5" cy="89" fill="#ADD1B2" rx="11" ry="11" style="stroke:#A80036;stroke-width:1.0;"/><path d="M243.8438,84.6719 C242.9063,84.2344 242.3125,84.0938 241.4375,84.0938 C238.8125,84.0938 236.8125,86.1719 236.8125,88.8906 L236.8125,90.0156 C236.8125,92.5938 238.9219,94.4844 241.8125,94.4844 C243.0313,94.4844 244.1875,94.1875 244.9375,93.6406 C245.5156,93.2344 245.8438,92.7813 245.8438,92.3906 C245.8438,91.9375 245.4531,91.5469 244.9844,91.5469 C244.7656,91.5469 244.5625,91.625 244.375,91.8125 C243.9219,92.2969 243.9219,92.2969 243.7344,92.3906 C243.3125,92.6563 242.625,92.7813 241.8594,92.7813 C239.8125,92.7813 238.5156,91.6875 238.5156,89.9844 L238.5156,88.8906 C238.5156,87.1094 239.7656,85.7969 241.5,85.7969 C242.0781,85.7969 242.6875,85.9531 243.1563,86.2031 C243.6406,86.4844 243.8125,86.7031 243.9063,87.1094 C243.9688,87.5156 244,87.6406 244.1406,87.7656 C244.2813,87.9063 244.5156,88.0156 244.7344,88.0156 C245,88.0156 245.2656,87.875 245.4375,87.6563 C245.5469,87.5 245.5781,87.3125 245.5781,86.8906 L245.5781,85.4688 C245.5781,85.0313 245.5625,84.9063 245.4688,84.75 C245.3125,84.4844 245.0313,84.3438 244.7344,84.3438 C244.4375,84.3438 244.2344,84.4375 244.0156,84.75 L243.8438,84.6719 Z " fill="#000000"/><text fill="#000000" font-family="sans-serif" font-size="12" lengthAdjust="spacing" textLength="177" x="255.5" y="93.1543">std::enable_shared_from_this</text><line style="stroke:#A80036;stroke-width:1.5;" x1="227.5" x2="434.5" y1="105" y2="105"/><line style="stroke:#A80036;stroke-width:1.5;" x1="227.5" x2="434.5" y1="113" y2="113"/><!--MD5=[5a4ead05d6ec24abdd92b185c08cbce7]
class NaturalPersonBuilder--><rect codeLine="69" fill="#FEFECE" filter="url(#f12773gmqrjrp9)" height="150.4375" id="NaturalPersonBuilder" style="stroke:#A80036;stroke-width:1.5;" width="534" x="601" y="213"/><ellipse cx="801.75" cy="229" fill="#ADD1B2" rx="11" ry="11" style="stroke:#A80036;stroke-width:1.0;"/><path d="M804.0938,224.6719 C803.1563,224.2344 802.5625,224.0938 801.6875,224.0938 C799.0625,224.0938 797.0625,226.1719 797.0625,228.8906 L797.0625,230.0156 C797.0625,232.5938 799.1719,234.4844 802.0625,234.4844 C803.2813,234.4844 804.4375,234.1875 805.1875,233.6406 C805.7656,233.2344 806.0938,232.7813 806.0938,232.3906 C806.0938,231.9375 805.7031,231.5469 805.2344,231.5469 C805.0156,231.5469 804.8125,231.625 804.625,231.8125 C804.1719,232.2969 804.1719,232.2969 803.9844,232.3906 C803.5625,232.6563 802.875,232.7813 802.1094,232.7813 C800.0625,232.7813 798.7656,231.6875 798.7656,229.9844 L798.7656,228.8906 C798.7656,227.1094 800.0156,225.7969 801.75,225.7969 C802.3281,225.7969 802.9375,225.9531 803.4063,226.2031 C803.8906,226.4844 804.0625,226.7031 804.1563,227.1094 C804.2188,227.5156 804.25,227.6406 804.3906,227.7656 C804.5313,227.9063 804.7656,228.0156 804.9844,228.0156 C805.25,228.0156 805.5156,227.875 805.6875,227.6563 C805.7969,227.5 805.8281,227.3125 805.8281,226.8906 L805.8281,225.4688 C805.8281,225.0313 805.8125,224.9063 805.7188,224.75 C805.5625,224.4844 805.2813,224.3438 804.9844,224.3438 C804.6875,224.3438 804.4844,224.4375 804.2656,224.75 L804.0938,224.6719 Z " fill="#000000"/><text fill="#000000" font-family="sans-serif" font-size="12" lengthAdjust="spacing" textLength="124" x="822.25" y="233.1543">NaturalPersonBuilder</text><line style="stroke:#A80036;stroke-width:1.5;" x1="602" x2="1134" y1="245" y2="245"/><rect fill="none" height="6" style="stroke:#C82930;stroke-width:1.0;" width="6" x="609" y="253"/><text fill="#000000" font-family="sans-serif" font-size="11" lengthAdjust="spacing" textLength="260" x="621" y="259.2104">std::shared_ptr&lt;NaturalPerson&gt; naturalPerson</text><line style="stroke:#A80036;stroke-width:1.5;" x1="602" x2="1134" y1="265.8047" y2="265.8047"/><ellipse cx="612" cy="276.8047" fill="#84BE84" rx="3" ry="3" style="stroke:#038048;stroke-width:1.0;"/><text fill="#000000" font-family="sans-serif" font-size="11" lengthAdjust="spacing" textLength="126" x="621" y="280.0151">NaturalPersonBuilder()</text><ellipse cx="612" cy="289.6094" fill="#84BE84" rx="3" ry="3" style="stroke:#038048;stroke-width:1.0;"/><text fill="#000000" font-family="sans-serif" font-size="11" lengthAdjust="spacing" textLength="174" x="621" y="292.8198">virtual ~NaturalPersonBuilder()</text><ellipse cx="612" cy="302.4141" fill="#84BE84" rx="3" ry="3" style="stroke:#038048;stroke-width:1.0;"/><text fill="#000000" font-family="sans-serif" font-size="11" lengthAdjust="spacing" textLength="252" x="621" y="305.6245">std::shared_ptr&lt;PersonBuilder&gt; withId(int id)</text><ellipse cx="612" cy="315.2188" fill="#84BE84" rx="3" ry="3" style="stroke:#038048;stroke-width:1.0;"/><text fill="#000000" font-family="sans-serif" font-size="11" lengthAdjust="spacing" textLength="339" x="621" y="318.4292">std::shared_ptr&lt;PersonBuilder&gt; withName(std::string name)</text><ellipse cx="612" cy="328.0234" fill="#84BE84" rx="3" ry="3" style="stroke:#038048;stroke-width:1.0;"/><text fill="#000000" font-family="sans-serif" font-size="11" lengthAdjust="spacing" textLength="370" x="621" y="331.2339">std::shared_ptr&lt;PersonBuilder&gt; withDateOfBirth(tm* dateOfbirth)</text><ellipse cx="612" cy="340.8281" fill="#84BE84" rx="3" ry="3" style="stroke:#038048;stroke-width:1.0;"/><text fill="#000000" font-family="sans-serif" font-size="11" lengthAdjust="spacing" textLength="508" x="621" y="344.0386">std::shared_ptr&lt;PersonBuilder&gt; withIdentificationNumber(std::string identificationNumber)</text><ellipse cx="612" cy="353.6328" fill="#84BE84" rx="3" ry="3" style="stroke:#038048;stroke-width:1.0;"/><text fill="#000000" font-family="sans-serif" font-size="11" lengthAdjust="spacing" textLength="178" x="621" y="356.8433">std::shared_ptr&lt;Person&gt; build()</text><!--MD5=[27bdafa9574f9a25eaf5407d8c1a654a]
reverse link AbstractAddressFactory to AddressFactory--><path codeLine="38" d="M3141.96,154.349 C3145.28,185.663 3149.3,223.694 3152.19,250.992 " fill="none" id="AbstractAddressFactory-backto-AddressFactory" style="stroke:#A80036;stroke-width:1.0;"/><polygon fill="none" points="3135,155.067,3139.86,134.441,3148.92,153.593,3135,155.067" style="stroke:#A80036;stroke-width:1.0;"/><!--MD5=[d2e99782a5ba868f8f781370578608ce]
reverse link AbstractCarFactory to CarFactory--><path codeLine="45" d="M2284,154.799 C2284,186.027 2284,223.824 2284,250.992 " fill="none" id="AbstractCarFactory-backto-CarFactory" style="stroke:#A80036;stroke-width:1.0;"/><polygon fill="none" points="2277,154.441,2284,134.441,2291,154.441,2277,154.441" style="stroke:#A80036;stroke-width:1.0;"/><!--MD5=[ee123a70b7b62165242002a2cb691bcb]
reverse link AbstractClientFactory to ClientFactory--><path codeLine="52" d="M1474,154.799 C1474,186.027 1474,223.824 1474,250.992 " fill="none" id="AbstractClientFactory-backto-ClientFactory" style="stroke:#A80036;stroke-width:1.0;"/><polygon fill="none" points="1467,154.441,1474,134.441,1481,154.441,1467,154.441" style="stroke:#A80036;stroke-width:1.0;"/><!--MD5=[63d38e04c573288d0832f83b892c8f24]
reverse link PersonBuilder to LegalPersonBuilder--><path codeLine="65" d="M637.895,160.166 C592.872,177.016 543.682,195.426 497.088,212.864 " fill="none" id="PersonBuilder-backto-LegalPersonBuilder" style="stroke:#A80036;stroke-width:1.0;"/><polygon fill="none" points="635.73,153.502,656.915,153.048,640.638,166.614,635.73,153.502" style="stroke:#A80036;stroke-width:1.0;"/><!--MD5=[27f1252d64a10e31e9c5534fcfc78acb]
reverse link std::enable_shared_from_this to LegalPersonBuilder--><path codeLine="66" d="M323.737,140.897 C320.13,162.2 315.669,188.549 311.532,212.98 " fill="none" id="std::enable_shared_from_this-backto-LegalPersonBuilder" style="stroke:#A80036;stroke-width:1.0;"/><polygon fill="none" points="316.836,139.726,327.076,121.175,330.639,142.063,316.836,139.726" style="stroke:#A80036;stroke-width:1.0;"/><!--MD5=[44576f1d429d78afdc9e7c8760f800ca]
reverse link PersonBuilder to NaturalPersonBuilder--><path codeLine="80" d="M829.121,172.185 C833.639,185.527 838.349,199.437 842.867,212.78 " fill="none" id="PersonBuilder-backto-NaturalPersonBuilder" style="stroke:#A80036;stroke-width:1.0;"/><polygon fill="none" points="822.468,174.363,822.683,153.175,835.728,169.873,822.468,174.363" style="stroke:#A80036;stroke-width:1.0;"/><!--MD5=[ce0962696eff3eb272fe0089e0c21de8]
reverse link std::enable_shared_from_this to NaturalPersonBuilder--><path codeLine="81" d="M414.691,127.759 C437.789,135.955 462.86,144.836 486,153 C541.176,172.467 600.863,193.443 656.293,212.889 " fill="none" id="std::enable_shared_from_this-backto-NaturalPersonBuilder" style="stroke:#A80036;stroke-width:1.0;"/><polygon fill="none" points="412.343,134.354,395.838,121.066,417.027,121.16,412.343,134.354" style="stroke:#A80036;stroke-width:1.0;"/><!--MD5=[3940e967da46d31e1ff094524c576c1c]
@startuml
package "domain.service" {

class AbstractAddressFactory {
    +virtual std::shared_ptr<Address> get(int id,std::string addressDescription,std::string addressComplement,std::string numberAddress,
            std::string zipCode,std::string city,std::string state,std::string country) = 0;
}
abstract        AbstractAddressFactory

class AbstractCarFactory {
    +virtual std::shared_ptr<Car> get(int id,std::string brand,std::string model,std::string description,
            std::string color,std::string registrationPlate,std::string renavan,int year) = 0;
}

abstract        AbstractCarFactory

class AbstractClientFactory {
    +virtual std::shared_ptr<Client> get(int id,std::shared_ptr<Person> person, 
            std::shared_ptr<Address> address) = 0;
}

abstract        AbstractClientFactory

class PersonBuilder {
    +virtual std::shared_ptr<PersonBuilder> withId(int id) = 0;
    +virtual std::shared_ptr<PersonBuilder> withName(std::string name) = 0;
    +virtual std::shared_ptr<PersonBuilder> withDateOfBirth(tm* dateOfbirth) = 0;
    +virtual std::shared_ptr<PersonBuilder> withIdentificationNumber(std::string identificationNumber) = 0;
    +virtual std::shared_ptr<Person> build() = 0;
}

abstract        PersonBuilder

class AddressFactory {
    +std::shared_ptr<Address> get(int id,std::string addressDescription,std::string addressComplement,std::string numberAddress,
            std::string zipCode,std::string city,std::string state,std::string country);
}

AbstractAddressFactory <|- - AddressFactory

class CarFactory {
    +CarFactory()
    +std::shared_ptr<Car> get(int id, std::string brand, std::string model, std::string description, std::string color, std::string registrationPlate, std::string renavan, int year)
}

AbstractCarFactory <|- - CarFactory

class ClientFactory  {
    +ClientFactory()
    +std::shared_ptr<Client> get(int id,std::shared_ptr<Person> person, std::shared_ptr<Address> address)
}

AbstractClientFactory <|- - ClientFactory

class LegalPersonBuilder {
    -std::shared_ptr<LegalPerson> legalPerson
    +LegalPersonBuilder()
    +virtual ~LegalPersonBuilder()
    +std::shared_ptr<PersonBuilder> withId(int id)
    +std::shared_ptr<PersonBuilder> withName(std::string name)
    +std::shared_ptr<PersonBuilder> withDateOfBirth(tm* dateOfbirth)
    +std::shared_ptr<PersonBuilder> withIdentificationNumber(std::string identificationNumber)
    +std::shared_ptr<Person> build()
}

PersonBuilder <|- - LegalPersonBuilder
std::enable_shared_from_this <|- - LegalPersonBuilder 


class NaturalPersonBuilder  {
    -std::shared_ptr<NaturalPerson> naturalPerson
    +NaturalPersonBuilder()
    +virtual ~NaturalPersonBuilder()
    +std::shared_ptr<PersonBuilder> withId(int id)
    +std::shared_ptr<PersonBuilder> withName(std::string name)
    +std::shared_ptr<PersonBuilder> withDateOfBirth(tm* dateOfbirth)
    +std::shared_ptr<PersonBuilder> withIdentificationNumber(std::string identificationNumber)
    +std::shared_ptr<Person> build()
}

PersonBuilder <|- - NaturalPersonBuilder
std::enable_shared_from_this <|- - NaturalPersonBuilder 

}
@enduml

PlantUML version 1.2021.2beta9(Unknown compile time)
(GPL source distribution)
Java Runtime: Java(TM) SE Runtime Environment
JVM: Java HotSpot(TM) 64-Bit Server VM
Default Encoding: UTF-8
Language: en
Country: US
--></g></svg>